<svg xmlns="http://www.w3.org/2000/svg" height="40" viewBox="0 -960 960 960" width="40"><path d="M446.539-446.873H232.796q-14.346 0-24.237-10.052-9.891-10.052-9.891-23.999t9.891-23.742q9.891-9.795 24.237-9.795h213.743v-213.743q0-13.979 9.918-24.053 9.918-10.075 23.666-10.075 13.748 0 23.876 10.075 10.128 10.074 10.128 24.053v213.743h213.744q13.696 0 23.578 9.93 9.883 9.929 9.883 23.876 0 13.947-9.883 23.865-9.882 9.917-23.578 9.917H514.127v213.744q0 13.696-10.113 23.578-10.112 9.883-24.149 9.883-13.753 0-23.539-9.883-9.787-9.882-9.787-23.578v-213.744Z"/></svg>