<svg xmlns="http://www.w3.org/2000/svg" height="24" viewBox="0 -960 960 960" width="24"><path d="M288.309-108.001q-41.923 0-70.115-28.193-28.193-28.192-28.193-70.115V-724h-10q-17.769 0-30.384-12.615-12.616-12.615-12.616-30.384t12.616-30.384q12.615-12.616 30.384-12.616H358q0-17.692 12.646-30.538t30.738-12.846h159.232q18.092 0 30.738 12.646T604-809.999h177.999q17.769 0 30.384 12.616 12.616 12.615 12.616 30.384t-12.616 30.384Q799.768-724 781.999-724h-10v517.691q0 41.923-28.193 70.115-28.192 28.193-70.115 28.193H288.309ZM686-724H276v517.691q0 5.385 3.462 8.847 3.462 3.462 8.847 3.462h385.382q5.385 0 8.847-3.462 3.462-3.462 3.462-8.847V-724ZM355.155-275h85.999v-368h-85.999v368Zm165.691 0h85.999v-368h-85.999v368ZM276-724v530-530Z"/></svg>