<svg xmlns="http://www.w3.org/2000/svg" height="24" viewBox="0 -960 960 960" width="24"><path d="M191.154-184h67.461l365.387-365.386-67.461-67.462-365.387 365.387V-184Zm597.152-408.77L599.309-782.537l50.538-50.538q25.231-25.23 61.461-25.23t61.46 25.23l67.461 68.461q25.231 25.23 24.846 60.345-.385 35.115-25.615 60.345l-51.154 51.154ZM153.309-98.001q-20.461 0-34.307-13.847-13.846-13.846-13.846-34.307v-121.767q0-10.231 3.115-18.269 3.115-8.039 10.731-15.654l437.923-437.924 188.998 188.998-436.924 438.923q-7.615 7.616-15.653 10.731-8.039 3.116-18.27 3.116H153.309Zm436.77-485.308-33.538-33.539 67.461 67.462-33.923-33.923Z"/></svg>