<svg xmlns="http://www.w3.org/2000/svg" height="24" viewBox="0 -960 960 960" width="24"><path d="M480.091-312.924q77.985 0 132.485-54.59 54.5-54.591 54.5-132.577 0-77.985-54.59-132.485-54.591-54.5-132.577-54.5-77.985 0-132.485 54.59-54.5 54.591-54.5 132.577 0 77.985 54.59 132.485 54.591 54.5 132.577 54.5ZM479.882-390Q434-390 402-422.118q-32-32.117-32-78Q370-546 402.118-578q32.117-32 78-32Q526-610 558-577.882q32 32.117 32 78Q590-454 557.882-422q-32.117 32-78 32ZM480-190.001q-137.307 0-252.73-69.577-115.422-69.577-178.884-189.268-5.615-10.616-8.115-23.761-2.5-13.146-2.5-27.167 0-14.022 2.5-27.393t8.115-23.987q63.462-119.691 178.884-189.268Q342.693-809.999 480-809.999t252.73 69.577q115.422 69.577 178.884 189.268 5.615 10.616 8.115 23.761 2.5 13.146 2.5 27.167 0 14.022-2.5 27.393t-8.115 23.987Q848.152-329.155 732.73-259.578 617.307-190.001 480-190.001ZM480-500Zm0 224q115 0 211.872-60.582Q788.745-397.164 840-500q-51.255-102.836-148.128-163.418Q595-724 480-724q-115 0-211.872 60.582Q171.255-602.836 120-500q51.255 102.836 148.128 163.418Q365-276 480-276Z"/></svg>